<svg xmlns="http://www.w3.org/2000/svg" xmlns:xlink="http://www.w3.org/1999/xlink" version="1.1" viewBox="0 0 2320 1411" style="background: #ffffff"><defs><style>@import url(https://fonts.googleapis.com/css?family=Open+Sans:400,700);</style></defs><defs joint-selector="defs"></defs><g  joint-selector="layers" transform="matrix(1,0,0,1,0,0)"><g ></g><g ><!--z-index:1--><!--z-index:2--><!--z-index:3--><!--z-index:4--><!--z-index:5--><!--z-index:6--><!--z-index:7--><!--z-index:8--><!--z-index:9--><!--z-index:10--><!--z-index:11--><!--z-index:12--><!--z-index:13--><!--z-index:14--><!--z-index:15--><g   id="j_21"  transform="translate(20,1374.6)"><g id="v-224"><text  id="v-225" font-size="22px" xml:space="preserve" y="0.8em" font-weight="normal" text-anchor="start" fill="#aaaaaa" pointer-events="none" display="block" font-family="Open Sans"><tspan  dy="0" display="block">Tuesday, January 14, 2025 at 3:06 AM Central European Standard Time</tspan></text></g></g><!--z-index:16--><g   id="j_20"  transform="translate(20,1331.3999999999999)"><g id="v-222"><text  id="v-223" font-size="36px" xml:space="preserve" y="0.8em" font-weight="normal" text-anchor="start" fill="#000000" pointer-events="none" display="block" font-family="Open Sans"><tspan  dy="0" display="block">[Container] Booking System</tspan></text></g></g><!--z-index:17--><g   id="j_22"  transform="translate(200,435)" style=""><g  id="v-226" style="opacity: 1;"><rect  x="0" y="160" width="400" height="240" rx="70" id="v-228" stroke="#073b6f" stroke-width="2" pointer-events="visiblePainted" fill="#08427b" style="fill: rgb(8, 66, 123); stroke: rgb(7, 59, 111);"></rect><circle  cx="200" cy="88.88888888888889" r="88.88888888888889" id="v-227" stroke="#073b6f" stroke-width="2" pointer-events="visiblePainted" fill="#08427b" style="fill: rgb(8, 66, 123); stroke: rgb(7, 59, 111);"></circle><line  x1="80" y1="266.6666666666667" x2="80" y2="400" id="v-234" stroke="#073b6f" stroke-width="2" style="stroke: rgb(7, 59, 111);"></line><line  x1="320" y1="266.6666666666667" x2="320" y2="400" id="v-235" stroke="#073b6f" stroke-width="2" style="stroke: rgb(7, 59, 111);"></line><text  id="v-229" font-size="34" xml:space="preserve" y="0.8em" font-weight="bold" text-anchor="middle" pointer-events="visible" font-family="Open Sans" fill="#ffffff" transform="matrix(1,0,0,1,200,251.89999389648438)" style="fill: rgb(255, 255, 255);"><tspan  dy="0">User</tspan></text><text  id="v-230" font-size="17" xml:space="preserve" y="0.8em" text-anchor="middle" font-family="Open Sans" fill="#ffffff" transform="matrix(1,0,0,1,200,292.70001220703125)" style="fill: rgb(255, 255, 255);"><tspan  dy="0">[Person]</tspan></text><text  id="v-231" font-size="24" xml:space="preserve" display="none" y="0.8em" text-anchor="middle" font-family="Open Sans" fill="#ffffff" transform="matrix(1,0,0,1,200,313.1000061035156)" style="fill: rgb(255, 255, 255);"><tspan style="fill-opacity: 0; stroke-opacity: 0;"  dy="0">-</tspan></text><g  id="v-232" font-weight="normal" text-anchor="middle" color="#ffffff" transform="matrix(1,0,0,1,197.5,368)" style="fill: rgb(255, 255, 255);" display="none"><g ></g><g ></g><g ></g><g ></g></g><image  id="v-233"></image></g></g><!--z-index:18--><g   id="j_24"  transform="translate(880,165)" style=""><g id="v-243"><rect  id="v-244" width="1240" height="1011" rx="0" ry="0" fill="#ffffff" stroke="#297a29" stroke-width="1" stroke-dasharray="20,20" pointer-events="none"></rect><text  id="v-245" font-size="24px" xml:space="preserve" y="972" font-weight="normal" fill="#297a29" text-anchor="start" pointer-events="visible" font-family="Open Sans" transform="matrix(1,0,0,1,15,0)"><tspan  dy="0">Booking System</tspan></text><text  id="v-246" font-size="17px" xml:space="preserve" y="996" font-weight="normal" fill="#297a29" text-anchor="start" pointer-events="visible" font-family="Open Sans" transform="matrix(1,0,0,1,15,0)"><tspan  dy="0">[Software System]</tspan></text><image  id="v-247" pointer-events="visible"></image></g></g><!--z-index:19--><g   id="j_23"  transform="translate(900,785)" style=""><g  id="v-236" style="opacity: 1;"><rect  id="v-237" rx="1" ry="1" stroke="#4d994d" stroke-width="2" pointer-events="visiblePainted" fill="#55aa55" width="450" height="300" style="fill: rgb(85, 170, 85); stroke: rgb(77, 153, 77);"></rect><text  id="v-238" font-size="34" xml:space="preserve" y="0.8em" font-weight="bold" text-anchor="middle" pointer-events="visible" font-family="Open Sans" fill="#ffffff" transform="matrix(1,0,0,1,225,121.9000015258789)" style="fill: rgb(255, 255, 255);"><tspan  dy="0">Application</tspan></text><text  id="v-239" font-size="17" xml:space="preserve" y="0.8em" text-anchor="middle" font-family="Open Sans" fill="#ffffff" transform="matrix(1,0,0,1,225,162.6999969482422)" style="fill: rgb(255, 255, 255);"><tspan  dy="0">[Container]</tspan></text><text  id="v-240" font-size="24" xml:space="preserve" display="none" y="0.8em" text-anchor="middle" font-family="Open Sans" fill="#ffffff" transform="matrix(1,0,0,1,225,183.10000610351562)" style="fill: rgb(255, 255, 255);"><tspan style="fill-opacity: 0; stroke-opacity: 0;"  dy="0">-</tspan></text><g  id="v-241" color="#ffffff" transform="matrix(1,0,0,1,210,268)" style="fill: rgb(255, 255, 255);" display="none"><g  transform="translate(5 0)"><svg xmlns="http://www.w3.org/2000/svg" width="20" height="20" fill="currentColor" viewBox="0 0 16 16"><path fill-rule="evenodd" d="M6.5 12a5.5 5.5 0 1 0 0-11 5.5 5.5 0 0 0 0 11zM13 6.5a6.5 6.5 0 1 1-13 0 6.5 6.5 0 0 1 13 0z"></path><path d="M10.344 11.742c.03.04.062.078.098.115l3.85 3.85a1 1 0 0 0 1.415-1.414l-3.85-3.85a1.007 1.007 0 0 0-.115-.1 6.538 6.538 0 0 1-1.398 1.4z"></path><path fill-rule="evenodd" d="M6.5 3a.5.5 0 0 1 .5.5V6h2.5a.5.5 0 0 1 0 1H7v2.5a.5.5 0 0 1-1 0V7H3.5a.5.5 0 0 1 0-1H6V3.5a.5.5 0 0 1 .5-.5z"></path></svg></g><g ></g><g ></g><g ></g></g><image  id="v-242"></image></g></g><!--z-index:20--><g   id="j_25"  transform="translate(1650,785)" style=""><g  id="v-254" style="opacity: 1;"><path  d="M 0,30 a 225,30 0,0,0 450 0 a 225,30 0,0,0 -450 0 l 0,240 a 225,30 0,0,0 450 0 l 0,-240" id="v-255" stroke="#4d994d" stroke-width="2" pointer-events="visiblePainted" fill="#55aa55" style="fill: rgb(85, 170, 85); stroke: rgb(77, 153, 77);"></path><rect  id="v-256" stroke-width="0" pointer-events="visiblePainted" fill="none" stroke="none" width="450" height="270" x="0" y="30"></rect><text  id="v-257" font-size="34" xml:space="preserve" y="0.8em" font-weight="bold" text-anchor="middle" pointer-events="visible" font-family="Open Sans" fill="#ffffff" transform="matrix(1,0,0,1,225,96.19999694824219)" style="fill: rgb(255, 255, 255);"><tspan  dy="0">Relational Database</tspan></text><text  id="v-258" font-size="17" xml:space="preserve" y="0.8em" text-anchor="middle" font-family="Open Sans" fill="#ffffff" transform="matrix(1,0,0,1,225,137)" style="fill: rgb(255, 255, 255);"><tspan  dy="0">[Container: MySQL Server]</tspan></text><text  id="v-259" font-size="24" xml:space="preserve" y="0.8em" text-anchor="middle" font-family="Open Sans" fill="#ffffff" transform="matrix(1,0,0,1,225,167.39999389648438)" style="fill: rgb(255, 255, 255);"><tspan  dy="0">Stores events and relative</tspan><tspan dy="1.2em" x="0" >remaining tickets</tspan><tspan dy="1.2em" x="0" >Stores successful bookings</tspan></text><g  id="v-260" font-weight="normal" text-anchor="middle" color="#ffffff" transform="matrix(1,0,0,1,222.5,268)" style="fill: rgb(255, 255, 255);" display="none"><g ></g><g ></g><g ></g><g ></g></g><image  id="v-261"></image></g></g><!--z-index:21--><g   id="j_26"  transform="translate(1650,185)" style=""><g  id="v-265" style="opacity: 1;"><path  d="M 30,0 a 30,150 0,0,1 0 300 a 30,150 0,0,1 0 -300 l 390,0 a 30,150 0,0,1 0 300 l -390,0" id="v-266" stroke="#4d994d" stroke-width="2" pointer-events="visiblePainted" fill="#55aa55" style="fill: rgb(85, 170, 85); stroke: rgb(77, 153, 77);"></path><rect  id="v-267" stroke-width="0" pointer-events="visiblePainted" fill="none" stroke="none" width="420" height="300" x="30" y="0"></rect><text  id="v-268" font-size="34" xml:space="preserve" y="0.8em" font-weight="bold" text-anchor="middle" pointer-events="visible" font-family="Open Sans" fill="#ffffff" transform="matrix(1,0,0,1,240,88.0999984741211)" style="fill: rgb(255, 255, 255);"><tspan  dy="0">Message Broker</tspan></text><text  id="v-269" font-size="17" xml:space="preserve" y="0.8em" text-anchor="middle" font-family="Open Sans" fill="#ffffff" transform="matrix(1,0,0,1,240,128.89999389648438)" style="fill: rgb(255, 255, 255);"><tspan  dy="0">[Container: RabbitMQ]</tspan></text><text  id="v-270" font-size="24" xml:space="preserve" y="0.8em" text-anchor="middle" font-family="Open Sans" fill="#ffffff" transform="matrix(1,0,0,1,240,159.3000030517578)" style="fill: rgb(255, 255, 255);"><tspan  dy="0">Send asynchronously message to</tspan><tspan dy="1.2em" x="0" >the Email Server</tspan></text><g  id="v-271" font-weight="normal" text-anchor="middle" color="#ffffff" transform="matrix(1,0,0,1,237.5,268)" style="fill: rgb(255, 255, 255);" display="none"><g ></g><g ></g><g ></g><g ></g></g><image  id="v-272"></image></g></g><!--z-index:22--><g   id="j_27"  transform="translate(900,185)" style=""><g  id="v-279" style="opacity: 1;"><rect  id="v-280" rx="1" ry="1" stroke="#4d994d" stroke-width="2" pointer-events="visiblePainted" fill="#55aa55" width="450" height="300" style="fill: rgb(85, 170, 85); stroke: rgb(77, 153, 77);"></rect><text  id="v-281" font-size="34" xml:space="preserve" y="0.8em" font-weight="bold" text-anchor="middle" pointer-events="visible" font-family="Open Sans" fill="#ffffff" transform="matrix(1,0,0,1,225,88.0999984741211)" style="fill: rgb(255, 255, 255);"><tspan  dy="0">Email Server</tspan></text><text  id="v-282" font-size="17" xml:space="preserve" y="0.8em" text-anchor="middle" font-family="Open Sans" fill="#ffffff" transform="matrix(1,0,0,1,225,128.89999389648438)" style="fill: rgb(255, 255, 255);"><tspan  dy="0">[Container: Spring AMPQ + SimpleJavaMail]</tspan></text><text  id="v-283" font-size="24" xml:space="preserve" y="0.8em" text-anchor="middle" font-family="Open Sans" fill="#ffffff" transform="matrix(1,0,0,1,225,159.3000030517578)" style="fill: rgb(255, 255, 255);"><tspan  dy="0">Consumes messages and then send</tspan><tspan dy="1.2em" x="0" >emails to User</tspan></text><g  id="v-284" color="#ffffff" transform="matrix(1,0,0,1,222.5,268)" style="fill: rgb(255, 255, 255);" display="none"><g ></g><g ></g><g ></g><g ></g></g><image  id="v-285"></image></g></g><!--z-index:23--><g   id="j_28" ><path  stroke="#707070" d="M 600 718 L 900 842" id="v-301" stroke-width="2" stroke-dasharray="30 30" fill="none" style="opacity: 1;"></path><path  fill="black" stroke="black" d="M 0 0 0 0" transform="matrix(0.9240145683288574,0.38235723972320557,-0.38235723972320557,0.9240145683288574,600,717.760009765625)"></path><path  fill="#707070" stroke="#707070" d="M 20 0 L 0 10 L 20 20 z" id="v-303" transform="matrix(-0.9240146279335022,-0.3823571503162384,0.3823571503162384,-0.9240146279335022,896.1763916015625,851.14013671875)" style="opacity: 1;"></path><path  d="M 600 718 L 900 842" id="v-302" fill="none" style="cursor: auto; pointer-events: visiblepainted;"></path><g ><g id="v-292"  label-idx="0" cursor="move" transform="matrix(1,0,0,1,750,780)" style="cursor: default; opacity: 1;"><rect joint-selector="rect" id="v-296" fill="#ffffff" rx="3" ry="3" pointer-events="none" width="153.17999267578125" height="62.03784370422363" transform="matrix(1,0,0,1,-76.5999984741211,-31)"></rect><text joint-selector="text" id="v-295" font-size="24px" xml:space="preserve" y="0.8em" fill="#707070" text-anchor="middle" pointer-events="none" font-family="Open Sans" font-weight="normal" transform="matrix(1,0,0,1,0,-24.5)"><tspan  dy="0">Send Booking</tspan><tspan dy="1.2em" x="0" >Request</tspan></text></g><g id="v-293"  label-idx="1" cursor="move" transform="matrix(1,0,0,1,750,820.7999877929688)" style="cursor: default; opacity: 1;"><rect joint-selector="rect" id="v-298" fill="#ffffff" rx="3" ry="3" pointer-events="none" width="52.59375" height="23.375" transform="matrix(1,0,0,1,-26.299999237060547,-11.699999809265137)"></rect><text joint-selector="text" id="v-297" font-size="17px" xml:space="preserve" y="0.8em" fill="#707070" text-anchor="middle" pointer-events="none" font-family="Open Sans" font-weight="normal" transform="matrix(1,0,0,1,0,-7.199999809265137)"><tspan  dy="0">[HTTP]</tspan></text></g><g id="v-294"  label-idx="2" cursor="move" transform="matrix(1,0,0,1,740,829.2000122070312)" style="cursor: default; opacity: 1;"><rect joint-selector="rect" id="v-300" fill="#ffffff" rx="3" ry="3"  width="0" height="0" transform="matrix(1,0,0,1,0,0)" display="none"></rect><text joint-selector="text" id="v-299" fill="#000000" font-size="14" text-anchor="middle" pointer-events="none"></text></g></g><g  display="none" style="display: none;"></g><g  id="v-305" display="none"><g  id="v-290"><path  end="source" d="M 26 0 L 0 13 L 26 26 z"></path></g><g  id="v-291"><path  end="target" d="M 26 0 L 0 13 L 26 26 z"></path></g></g><g  id="v-304" display="none"><g  id="v-289" transform="translate(636.966675187258, 733.2795590774) "><g  event="remove"><circle r="11"></circle><path transform="scale(.8) translate(-16, -16)" d="M24.778,21.419 19.276,15.917 24.777,10.415 21.949,7.585 16.447,13.087 10.945,7.585 8.117,10.415 13.618,15.917 8.116,21.419 10.946,24.248 16.447,18.746 21.948,24.248z"></path><title>Remove link.</title></g><g  event="link:options"><circle r="11" transform="translate(25)"></circle><path fill="white" transform="scale(.55) translate(29, -16)" d="M31.229,17.736c0.064-0.571,0.104-1.148,0.104-1.736s-0.04-1.166-0.104-1.737l-4.377-1.557c-0.218-0.716-0.504-1.401-0.851-2.05l1.993-4.192c-0.725-0.91-1.549-1.734-2.458-2.459l-4.193,1.994c-0.647-0.347-1.334-0.632-2.049-0.849l-1.558-4.378C17.165,0.708,16.588,0.667,16,0.667s-1.166,0.041-1.737,0.105L12.707,5.15c-0.716,0.217-1.401,0.502-2.05,0.849L6.464,4.005C5.554,4.73,4.73,5.554,4.005,6.464l1.994,4.192c-0.347,0.648-0.632,1.334-0.849,2.05l-4.378,1.557C0.708,14.834,0.667,15.412,0.667,16s0.041,1.165,0.105,1.736l4.378,1.558c0.217,0.715,0.502,1.401,0.849,2.049l-1.994,4.193c0.725,0.909,1.549,1.733,2.459,2.458l4.192-1.993c0.648,0.347,1.334,0.633,2.05,0.851l1.557,4.377c0.571,0.064,1.148,0.104,1.737,0.104c0.588,0,1.165-0.04,1.736-0.104l1.558-4.377c0.715-0.218,1.399-0.504,2.049-0.851l4.193,1.993c0.909-0.725,1.733-1.549,2.458-2.458l-1.993-4.193c0.347-0.647,0.633-1.334,0.851-2.049L31.229,17.736zM16,20.871c-2.69,0-4.872-2.182-4.872-4.871c0-2.69,2.182-4.872,4.872-4.872c2.689,0,4.871,2.182,4.871,4.872C20.871,18.689,18.689,20.871,16,20.871z"></path><title>Link options.</title></g></g></g></g><!--z-index:24--><g   id="j_29" ><path  stroke="#707070" d="M 1350 935 L 1650 935" id="v-321" stroke-width="2" stroke-dasharray="30 30" fill="none" style="opacity: 1;"></path><path  fill="black" stroke="black" d="M 0 0 0 0" transform="matrix(1,0,0,1,1350,935)"></path><path  fill="#707070" stroke="#707070" d="M 20 0 L 0 10 L 20 20 z" id="v-323" transform="matrix(-1,1.2246468525851679e-16,-1.2246468525851679e-16,-1,1650,945)" style="opacity: 1;"></path><path  d="M 1350 935 L 1650 935" id="v-322" fill="none" style="cursor: auto; pointer-events: visiblepainted;"></path><g ><g id="v-312"  label-idx="0" cursor="move" transform="matrix(1,0,0,1,1500,935)" style="cursor: default; opacity: 1;"><rect joint-selector="rect" id="v-316" fill="#ffffff" rx="3" ry="3" pointer-events="none" width="187.59722900390625" height="148.4378433227539" transform="matrix(1,0,0,1,-93.80000305175781,-74.19999694824219)"></rect><text joint-selector="text" id="v-315" font-size="24px" xml:space="preserve" y="0.8em" fill="#707070" text-anchor="middle" pointer-events="none" font-family="Open Sans" font-weight="normal" transform="matrix(1,0,0,1,0,-67.69999694824219)"><tspan  dy="0">Reads remaining</tspan><tspan dy="1.2em" x="0" >tickets from</tspan><tspan dy="1.2em" x="0" >---------------------</tspan><tspan dy="1.2em" x="0" >Writes bookings</tspan><tspan dy="1.2em" x="0" >to</tspan></text></g><g id="v-313"  label-idx="1" cursor="move" transform="matrix(1,0,0,1,1500,1019)" style="cursor: default; opacity: 1;"><rect joint-selector="rect" id="v-318" fill="#ffffff" rx="3" ry="3" pointer-events="none" width="49.68958282470703" height="23.375" transform="matrix(1,0,0,1,-24.799999237060547,-11.699999809265137)"></rect><text joint-selector="text" id="v-317" font-size="17px" xml:space="preserve" y="0.8em" fill="#707070" text-anchor="middle" pointer-events="none" font-family="Open Sans" font-weight="normal" transform="matrix(1,0,0,1,0,-7.199999809265137)"><tspan  dy="0">[JDBC]</tspan></text></g><g id="v-314"  label-idx="2" cursor="move" transform="matrix(1,0,0,1,1490,1027.4000244140625)" style="cursor: default; opacity: 1;"><rect joint-selector="rect" id="v-320" fill="#ffffff" rx="3" ry="3"  width="0" height="0" transform="matrix(1,0,0,1,0,0)" display="none"></rect><text joint-selector="text" id="v-319" fill="#000000" font-size="14" text-anchor="middle" pointer-events="none"></text></g></g><g  display="none" style="display: none;"></g><g  id="v-325" display="none"><g  id="v-310"><path  end="source" d="M 26 0 L 0 13 L 26 26 z"></path></g><g  id="v-311"><path  end="target" d="M 26 0 L 0 13 L 26 26 z"></path></g></g><g  id="v-324" display="none"><g  id="v-309" transform="translate(1390, 935) "><g  event="remove"><circle r="11"></circle><path transform="scale(.8) translate(-16, -16)" d="M24.778,21.419 19.276,15.917 24.777,10.415 21.949,7.585 16.447,13.087 10.945,7.585 8.117,10.415 13.618,15.917 8.116,21.419 10.946,24.248 16.447,18.746 21.948,24.248z"></path><title>Remove link.</title></g><g  event="link:options"><circle r="11" transform="translate(25)"></circle><path fill="white" transform="scale(.55) translate(29, -16)" d="M31.229,17.736c0.064-0.571,0.104-1.148,0.104-1.736s-0.04-1.166-0.104-1.737l-4.377-1.557c-0.218-0.716-0.504-1.401-0.851-2.05l1.993-4.192c-0.725-0.91-1.549-1.734-2.458-2.459l-4.193,1.994c-0.647-0.347-1.334-0.632-2.049-0.849l-1.558-4.378C17.165,0.708,16.588,0.667,16,0.667s-1.166,0.041-1.737,0.105L12.707,5.15c-0.716,0.217-1.401,0.502-2.05,0.849L6.464,4.005C5.554,4.73,4.73,5.554,4.005,6.464l1.994,4.192c-0.347,0.648-0.632,1.334-0.849,2.05l-4.378,1.557C0.708,14.834,0.667,15.412,0.667,16s0.041,1.165,0.105,1.736l4.378,1.558c0.217,0.715,0.502,1.401,0.849,2.049l-1.994,4.193c0.725,0.909,1.549,1.733,2.459,2.458l4.192-1.993c0.648,0.347,1.334,0.633,2.05,0.851l1.557,4.377c0.571,0.064,1.148,0.104,1.737,0.104c0.588,0,1.165-0.04,1.736-0.104l1.558-4.377c0.715-0.218,1.399-0.504,2.049-0.851l4.193,1.993c0.909-0.725,1.733-1.549,2.458-2.458l-1.993-4.193c0.347-0.647,0.633-1.334,0.851-2.049L31.229,17.736zM16,20.871c-2.69,0-4.872-2.182-4.872-4.871c0-2.69,2.182-4.872,4.872-4.872c2.689,0,4.871,2.182,4.871,4.872C20.871,18.689,18.689,20.871,16,20.871z"></path><title>Link options.</title></g></g></g></g><!--z-index:25--><g   id="j_30" ><path  stroke="#707070" d="M 1313 785 L 1688 485" id="v-338" stroke-width="2" stroke-dasharray="30 30" fill="none" style="opacity: 1;"></path><path  fill="black" stroke="black" d="M 0 0 0 0" transform="matrix(0.780868649482727,-0.6246952414512634,0.6246952414512634,0.780868649482727,1312.5,785)"></path><path  fill="#707070" stroke="#707070" d="M 20 0 L 0 10 L 20 20 z" id="v-340" transform="matrix(-0.7808688282966614,0.6246950030326843,-0.6246950030326843,-0.7808688282966614,1693.7469482421875,492.8086853027344)" style="opacity: 1;"></path><path  d="M 1313 785 L 1688 485" id="v-339" fill="none" style="cursor: auto; pointer-events: visiblepainted;"></path><g ><g id="v-332"  label-idx="0" cursor="move" transform="matrix(1,0,0,1,1500.5,635)" style="cursor: default; opacity: 1;"><rect joint-selector="rect" id="v-335" fill="#ffffff" rx="3" ry="3" pointer-events="none" width="170.87110900878906" height="33.237844467163086" transform="matrix(1,0,0,1,-85.4000015258789,-16.600000381469727)"></rect><text joint-selector="text" id="v-334" font-size="24px" xml:space="preserve" y="0.8em" fill="#707070" text-anchor="middle" pointer-events="none" font-family="Open Sans" font-weight="normal" transform="matrix(1,0,0,1,0,-10.100000381469727)"><tspan  dy="0">Push Messages</tspan></text></g><g id="v-333"  label-idx="1" cursor="move" transform="matrix(1,0,0,1,1490.5,661.4000244140625)" style="cursor: default; opacity: 1;"><rect joint-selector="rect" id="v-337" fill="#ffffff" rx="3" ry="3"  width="0" height="0" transform="matrix(1,0,0,1,0,0)" display="none"></rect><text joint-selector="text" id="v-336" fill="#000000" font-size="14" text-anchor="middle" pointer-events="none"></text></g></g><g  display="none" style="display: none;"></g><g  id="v-342" display="none"><g  id="v-330"><path  end="source" d="M 26 0 L 0 13 L 26 26 z"></path></g><g  id="v-331"><path  end="target" d="M 26 0 L 0 13 L 26 26 z"></path></g></g><g  id="v-341" display="none"><g  id="v-329" transform="translate(1344.2347523777214, 760.012198097823) "><g  event="remove"><circle r="11"></circle><path transform="scale(.8) translate(-16, -16)" d="M24.778,21.419 19.276,15.917 24.777,10.415 21.949,7.585 16.447,13.087 10.945,7.585 8.117,10.415 13.618,15.917 8.116,21.419 10.946,24.248 16.447,18.746 21.948,24.248z"></path><title>Remove link.</title></g><g  event="link:options"><circle r="11" transform="translate(25)"></circle><path fill="white" transform="scale(.55) translate(29, -16)" d="M31.229,17.736c0.064-0.571,0.104-1.148,0.104-1.736s-0.04-1.166-0.104-1.737l-4.377-1.557c-0.218-0.716-0.504-1.401-0.851-2.05l1.993-4.192c-0.725-0.91-1.549-1.734-2.458-2.459l-4.193,1.994c-0.647-0.347-1.334-0.632-2.049-0.849l-1.558-4.378C17.165,0.708,16.588,0.667,16,0.667s-1.166,0.041-1.737,0.105L12.707,5.15c-0.716,0.217-1.401,0.502-2.05,0.849L6.464,4.005C5.554,4.73,4.73,5.554,4.005,6.464l1.994,4.192c-0.347,0.648-0.632,1.334-0.849,2.05l-4.378,1.557C0.708,14.834,0.667,15.412,0.667,16s0.041,1.165,0.105,1.736l4.378,1.558c0.217,0.715,0.502,1.401,0.849,2.049l-1.994,4.193c0.725,0.909,1.549,1.733,2.459,2.458l4.192-1.993c0.648,0.347,1.334,0.633,2.05,0.851l1.557,4.377c0.571,0.064,1.148,0.104,1.737,0.104c0.588,0,1.165-0.04,1.736-0.104l1.558-4.377c0.715-0.218,1.399-0.504,2.049-0.851l4.193,1.993c0.909-0.725,1.733-1.549,2.458-2.458l-1.993-4.193c0.347-0.647,0.633-1.334,0.851-2.049L31.229,17.736zM16,20.871c-2.69,0-4.872-2.182-4.872-4.871c0-2.69,2.182-4.872,4.872-4.872c2.689,0,4.871,2.182,4.871,4.872C20.871,18.689,18.689,20.871,16,20.871z"></path><title>Link options.</title></g></g></g></g><!--z-index:26--><g   id="j_31" ><path  stroke="#707070" d="M 1350 335 L 1650 335" id="v-352" stroke-width="2" stroke-dasharray="30 30" fill="none" style="opacity: 1;"></path><path  fill="black" stroke="black" d="M 0 0 0 0" transform="matrix(1,0,0,1,1350,335)"></path><path  fill="#707070" stroke="#707070" d="M 20 0 L 0 10 L 20 20 z" id="v-354" transform="matrix(-1,1.2246468525851679e-16,-1.2246468525851679e-16,-1,1650,345)" style="opacity: 1;"></path><path  d="M 1350 335 L 1650 335" id="v-353" fill="none" style="cursor: auto; pointer-events: visiblepainted;"></path><g ><g id="v-346"  label-idx="0" cursor="move" transform="matrix(1,0,0,1,1500,335)" style="cursor: default; opacity: 1;"><rect joint-selector="rect" id="v-349" fill="#ffffff" rx="3" ry="3" pointer-events="none" width="117.58333587646484" height="33.237844467163086" transform="matrix(1,0,0,1,-58.79999923706055,-16.600000381469727)"></rect><text joint-selector="text" id="v-348" font-size="24px" xml:space="preserve" y="0.8em" fill="#707070" text-anchor="middle" pointer-events="none" font-family="Open Sans" font-weight="normal" transform="matrix(1,0,0,1,0,-10.100000381469727)"><tspan  dy="0">Consumes</tspan></text></g><g id="v-347"  label-idx="1" cursor="move" transform="matrix(1,0,0,1,1490,361.3999938964844)" style="cursor: default; opacity: 1;"><rect joint-selector="rect" id="v-351" fill="#ffffff" rx="3" ry="3"  width="0" height="0" transform="matrix(1,0,0,1,0,0)" display="none"></rect><text joint-selector="text" id="v-350" fill="#000000" font-size="14" text-anchor="middle" pointer-events="none"></text></g></g><g  display="none" style="display: none;"></g><g  id="v-356" display="none"><g  id="v-344"><path  end="source" d="M 26 0 L 0 13 L 26 26 z"></path></g><g  id="v-345"><path  end="target" d="M 26 0 L 0 13 L 26 26 z"></path></g></g><g  id="v-355" display="none"><g  id="v-343" transform="translate(1390, 335.00000000000006) "><g  event="remove"><circle r="11"></circle><path transform="scale(.8) translate(-16, -16)" d="M24.778,21.419 19.276,15.917 24.777,10.415 21.949,7.585 16.447,13.087 10.945,7.585 8.117,10.415 13.618,15.917 8.116,21.419 10.946,24.248 16.447,18.746 21.948,24.248z"></path><title>Remove link.</title></g><g  event="link:options"><circle r="11" transform="translate(25)"></circle><path fill="white" transform="scale(.55) translate(29, -16)" d="M31.229,17.736c0.064-0.571,0.104-1.148,0.104-1.736s-0.04-1.166-0.104-1.737l-4.377-1.557c-0.218-0.716-0.504-1.401-0.851-2.05l1.993-4.192c-0.725-0.91-1.549-1.734-2.458-2.459l-4.193,1.994c-0.647-0.347-1.334-0.632-2.049-0.849l-1.558-4.378C17.165,0.708,16.588,0.667,16,0.667s-1.166,0.041-1.737,0.105L12.707,5.15c-0.716,0.217-1.401,0.502-2.05,0.849L6.464,4.005C5.554,4.73,4.73,5.554,4.005,6.464l1.994,4.192c-0.347,0.648-0.632,1.334-0.849,2.05l-4.378,1.557C0.708,14.834,0.667,15.412,0.667,16s0.041,1.165,0.105,1.736l4.378,1.558c0.217,0.715,0.502,1.401,0.849,2.049l-1.994,4.193c0.725,0.909,1.549,1.733,2.459,2.458l4.192-1.993c0.648,0.347,1.334,0.633,2.05,0.851l1.557,4.377c0.571,0.064,1.148,0.104,1.737,0.104c0.588,0,1.165-0.04,1.736-0.104l1.558-4.377c0.715-0.218,1.399-0.504,2.049-0.851l4.193,1.993c0.909-0.725,1.733-1.549,2.458-2.458l-1.993-4.193c0.347-0.647,0.633-1.334,0.851-2.049L31.229,17.736zM16,20.871c-2.69,0-4.872-2.182-4.872-4.871c0-2.69,2.182-4.872,4.872-4.872c2.689,0,4.871,2.182,4.871,4.872C20.871,18.689,18.689,20.871,16,20.871z"></path><title>Link options.</title></g></g></g></g><!--z-index:27--><g   id="j_32" ><path  stroke="#707070" d="M 900 428 L 600 552" id="v-369" stroke-width="2" stroke-dasharray="30 30" fill="none" style="opacity: 1;"></path><path  fill="black" stroke="black" d="M 0 0 0 0" transform="matrix(-0.9240146279335022,0.3823571503162384,-0.3823571503162384,-0.9240146279335022,900,428.1000061035156)"></path><path  fill="#707070" stroke="#707070" d="M 20 0 L 0 10 L 20 20 z" id="v-371" transform="matrix(0.9240146279335022,-0.3823571503162384,0.3823571503162384,0.9240146279335022,596.1764526367188,542.9998779296875)" style="opacity: 1;"></path><path  d="M 900 428 L 600 552" id="v-370" fill="none" style="cursor: auto; pointer-events: visiblepainted;"></path><g ><g id="v-360"  label-idx="0" cursor="move" transform="matrix(1,0,0,1,750,490)" style="cursor: default; opacity: 1;"><rect joint-selector="rect" id="v-364" fill="#ffffff" rx="3" ry="3" pointer-events="none" width="68.94171905517578" height="33.237844467163086" transform="matrix(1,0,0,1,-33.599998474121094,-16.600000381469727)"></rect><text joint-selector="text" id="v-363" font-size="24px" xml:space="preserve" y="0.8em" fill="#707070" text-anchor="middle" pointer-events="none" font-family="Open Sans" font-weight="normal" transform="matrix(1,0,0,1,0,-10.100000381469727)"><tspan  dy="0">Notify</tspan></text></g><g id="v-361"  label-idx="1" cursor="move" transform="matrix(1,0,0,1,750,516.4000244140625)" style="cursor: default; opacity: 1;"><rect joint-selector="rect" id="v-366" fill="#ffffff" rx="3" ry="3" pointer-events="none" width="55.320831298828125" height="23.375" transform="matrix(1,0,0,1,-27.700000762939453,-11.699999809265137)"></rect><text joint-selector="text" id="v-365" font-size="17px" xml:space="preserve" y="0.8em" fill="#707070" text-anchor="middle" pointer-events="none" font-family="Open Sans" font-weight="normal" transform="matrix(1,0,0,1,0,-7.199999809265137)"><tspan  dy="0">[SMTP]</tspan></text></g><g id="v-362"  label-idx="2" cursor="move" transform="matrix(1,0,0,1,740,524.7999877929688)" style="cursor: default; opacity: 1;"><rect joint-selector="rect" id="v-368" fill="#ffffff" rx="3" ry="3"  width="0" height="0" transform="matrix(1,0,0,1,0,0)" display="none"></rect><text joint-selector="text" id="v-367" fill="#000000" font-size="14" text-anchor="middle" pointer-events="none"></text></g></g><g  display="none" style="display: none;"></g><g  id="v-373" display="none"><g  id="v-358"><path  end="source" d="M 26 0 L 0 13 L 26 26 z"></path></g><g  id="v-359"><path  end="target" d="M 26 0 L 0 13 L 26 26 z"></path></g></g><g  id="v-372" display="none"><g  id="v-357" transform="translate(863.0333248127419, 443.2795590774) "><g  event="remove"><circle r="11"></circle><path transform="scale(.8) translate(-16, -16)" d="M24.778,21.419 19.276,15.917 24.777,10.415 21.949,7.585 16.447,13.087 10.945,7.585 8.117,10.415 13.618,15.917 8.116,21.419 10.946,24.248 16.447,18.746 21.948,24.248z"></path><title>Remove link.</title></g><g  event="link:options"><circle r="11" transform="translate(25)"></circle><path fill="white" transform="scale(.55) translate(29, -16)" d="M31.229,17.736c0.064-0.571,0.104-1.148,0.104-1.736s-0.04-1.166-0.104-1.737l-4.377-1.557c-0.218-0.716-0.504-1.401-0.851-2.05l1.993-4.192c-0.725-0.91-1.549-1.734-2.458-2.459l-4.193,1.994c-0.647-0.347-1.334-0.632-2.049-0.849l-1.558-4.378C17.165,0.708,16.588,0.667,16,0.667s-1.166,0.041-1.737,0.105L12.707,5.15c-0.716,0.217-1.401,0.502-2.05,0.849L6.464,4.005C5.554,4.73,4.73,5.554,4.005,6.464l1.994,4.192c-0.347,0.648-0.632,1.334-0.849,2.05l-4.378,1.557C0.708,14.834,0.667,15.412,0.667,16s0.041,1.165,0.105,1.736l4.378,1.558c0.217,0.715,0.502,1.401,0.849,2.049l-1.994,4.193c0.725,0.909,1.549,1.733,2.459,2.458l4.192-1.993c0.648,0.347,1.334,0.633,2.05,0.851l1.557,4.377c0.571,0.064,1.148,0.104,1.737,0.104c0.588,0,1.165-0.04,1.736-0.104l1.558-4.377c0.715-0.218,1.399-0.504,2.049-0.851l4.193,1.993c0.909-0.725,1.733-1.549,2.458-2.458l-1.993-4.193c0.347-0.647,0.633-1.334,0.851-2.049L31.229,17.736zM16,20.871c-2.69,0-4.872-2.182-4.872-4.871c0-2.69,2.182-4.872,4.872-4.872c2.689,0,4.871,2.182,4.871,4.872C20.871,18.689,18.689,20.871,16,20.871z"></path><title>Link options.</title></g></g></g></g><!--z-index:28--></g><g ></g><g ></g><g ></g></g></svg>