<svg xmlns="http://www.w3.org/2000/svg" xmlns:xlink="http://www.w3.org/1999/xlink" version="1.1" viewBox="0 0 1550 800" style="background: #ffffff"><defs><style>@import url(https://fonts.googleapis.com/css?family=Open+Sans:400,700);</style></defs><defs joint-selector="defs"></defs><g  joint-selector="layers" transform="matrix(1,0,0,1,0,0)"><g ></g><g ><!--z-index:1--><!--z-index:2--><!--z-index:3--><!--z-index:4--><!--z-index:5--><!--z-index:6--><g   id="j_15"  transform="translate(20,763.6)"><g id="v-160"><text  id="v-161" font-size="22px" xml:space="preserve" y="0.8em" font-weight="normal" text-anchor="start" fill="#aaaaaa" pointer-events="none" display="block" font-family="Open Sans"><tspan  dy="0" display="block">Tuesday, January 14, 2025 at 3:06 AM Central European Standard Time</tspan></text></g></g><!--z-index:7--><g   id="j_14"  transform="translate(20,720.4)"><g id="v-158"><text  id="v-159" font-size="36px" xml:space="preserve" y="0.8em" font-weight="normal" text-anchor="start" fill="#000000" pointer-events="none" display="block" font-family="Open Sans"><tspan  dy="0" display="block">[System Context] Booking System</tspan></text></g></g><!--z-index:8--><g   id="j_16"  transform="translate(200,165)" style=""><g  id="v-162" style="opacity: 1;"><rect  x="0" y="160" width="400" height="240" rx="70" id="v-164" stroke="#073b6f" stroke-width="2" pointer-events="visiblePainted" fill="#08427b" style="fill: rgb(8, 66, 123); stroke: rgb(7, 59, 111);"></rect><circle  cx="200" cy="88.88888888888889" r="88.88888888888889" id="v-163" stroke="#073b6f" stroke-width="2" pointer-events="visiblePainted" fill="#08427b" style="fill: rgb(8, 66, 123); stroke: rgb(7, 59, 111);"></circle><line  x1="80" y1="266.6666666666667" x2="80" y2="400" id="v-170" stroke="#073b6f" stroke-width="2" style="stroke: rgb(7, 59, 111);"></line><line  x1="320" y1="266.6666666666667" x2="320" y2="400" id="v-171" stroke="#073b6f" stroke-width="2" style="stroke: rgb(7, 59, 111);"></line><text  id="v-165" font-size="34" xml:space="preserve" y="0.8em" font-weight="bold" text-anchor="middle" pointer-events="visible" font-family="Open Sans" fill="#ffffff" transform="matrix(1,0,0,1,200,251.89999389648438)" style="fill: rgb(255, 255, 255);"><tspan  dy="0">User</tspan></text><text  id="v-166" font-size="17" xml:space="preserve" y="0.8em" text-anchor="middle" font-family="Open Sans" fill="#ffffff" transform="matrix(1,0,0,1,200,292.70001220703125)" style="fill: rgb(255, 255, 255);"><tspan  dy="0">[Person]</tspan></text><text  id="v-167" font-size="24" xml:space="preserve" display="none" y="0.8em" text-anchor="middle" font-family="Open Sans" fill="#ffffff" transform="matrix(1,0,0,1,200,313.1000061035156)" style="fill: rgb(255, 255, 255);"><tspan style="fill-opacity: 0; stroke-opacity: 0;"  dy="0">-</tspan></text><g  id="v-168" font-weight="normal" text-anchor="middle" color="#ffffff" transform="matrix(1,0,0,1,197.5,368)" style="fill: rgb(255, 255, 255);" display="none"><g ></g><g ></g><g ></g><g ></g></g><image  id="v-169"></image></g></g><!--z-index:9--><g   id="j_17"  transform="translate(900,215)" style=""><g  id="v-172" style="opacity: 1;"><rect  id="v-173" rx="1" ry="1" stroke="#297a29" stroke-width="2" pointer-events="visiblePainted" fill="#2d882d" width="450" height="300" style="fill: rgb(45, 136, 45); stroke: rgb(41, 122, 41);"></rect><text  id="v-174" font-size="34" xml:space="preserve" y="0.8em" font-weight="bold" text-anchor="middle" pointer-events="visible" font-family="Open Sans" fill="#ffffff" transform="matrix(1,0,0,1,225,121.9000015258789)" style="fill: rgb(255, 255, 255);"><tspan  dy="0">Booking System</tspan></text><text  id="v-175" font-size="17" xml:space="preserve" y="0.8em" text-anchor="middle" font-family="Open Sans" fill="#ffffff" transform="matrix(1,0,0,1,225,162.6999969482422)" style="fill: rgb(255, 255, 255);"><tspan  dy="0">[Software System]</tspan></text><text  id="v-176" font-size="24" xml:space="preserve" display="none" y="0.8em" text-anchor="middle" font-family="Open Sans" fill="#ffffff" transform="matrix(1,0,0,1,225,183.10000610351562)" style="fill: rgb(255, 255, 255);"><tspan style="fill-opacity: 0; stroke-opacity: 0;"  dy="0">-</tspan></text><g  id="v-177" color="#ffffff" transform="matrix(1,0,0,1,210,268)" style="fill: rgb(255, 255, 255);" display="none"><g  transform="translate(5 0)"><svg xmlns="http://www.w3.org/2000/svg" width="20" height="20" fill="currentColor" viewBox="0 0 16 16"><path fill-rule="evenodd" d="M6.5 12a5.5 5.5 0 1 0 0-11 5.5 5.5 0 0 0 0 11zM13 6.5a6.5 6.5 0 1 1-13 0 6.5 6.5 0 0 1 13 0z"></path><path d="M10.344 11.742c.03.04.062.078.098.115l3.85 3.85a1 1 0 0 0 1.415-1.414l-3.85-3.85a1.007 1.007 0 0 0-.115-.1 6.538 6.538 0 0 1-1.398 1.4z"></path><path fill-rule="evenodd" d="M6.5 3a.5.5 0 0 1 .5.5V6h2.5a.5.5 0 0 1 0 1H7v2.5a.5.5 0 0 1-1 0V7H3.5a.5.5 0 0 1 0-1H6V3.5a.5.5 0 0 1 .5-.5z"></path></svg></g><g ></g><g ></g><g ></g></g><image  id="v-178"></image></g></g><!--z-index:10--><g   id="j_18" ><path  stroke="#707070" d="M 600 448 L 753 511 C 759.3333333333333 513.6666666666666 765.6666666666666 513.6666666666666 772 511 L 900 458" id="v-194" stroke-width="2" stroke-dasharray="30 30" fill="none" style="opacity: 1;"></path><path  fill="black" stroke="black" d="M 0 0 0 0" transform="matrix(0.9240195751190186,0.3823451101779938,-0.3823451101779938,0.9240195751190186,600,447.760009765625)"></path><path  fill="#707070" stroke="#707070" d="M 20 0 L 0 10 L 20 20 z" id="v-196" transform="matrix(-0.9240086078643799,0.3823716640472412,-0.3823716640472412,-0.9240086078643799,903.8236694335938,467.340087890625)" style="opacity: 1;"></path><path  d="M 600 448 L 753 511 C 759.3333333333333 513.6666666666666 765.6666666666666 513.6666666666666 772 511 L 900 458" id="v-195" fill="none" style="cursor: auto; pointer-events: visiblepainted;"></path><g ><g id="v-185"  label-idx="0" cursor="move" transform="matrix(1,0,0,1,749.5884399414062,509.5952453613281)" style="cursor: default; opacity: 1;"><rect joint-selector="rect" id="v-189" fill="#ffffff" rx="3" ry="3" pointer-events="none" width="153.0547332763672" height="61.42499542236328" transform="matrix(1,0,0,1,-76.5,-30.700000762939453)"></rect><text joint-selector="text" id="v-188" font-size="24px" xml:space="preserve" y="0.8em" fill="#707070" text-anchor="middle" pointer-events="none" font-family="Open Sans" font-weight="normal" transform="matrix(1,0,0,1,0,-24.5)"><tspan  dy="0">Send Booking</tspan><tspan dy="1.2em" x="0" >Request</tspan></text></g><g id="v-186"  label-idx="1" cursor="move" transform="matrix(1,0,0,1,749.5884399414062,550.395263671875)" style="cursor: default; opacity: 1;"><rect joint-selector="rect" id="v-191" fill="#ffffff" rx="3" ry="3" pointer-events="none" width="52.63499450683594" height="23.48999786376953" transform="matrix(1,0,0,1,-26.299999237060547,-11.800000190734863)"></rect><text joint-selector="text" id="v-190" font-size="17px" xml:space="preserve" y="0.8em" fill="#707070" text-anchor="middle" pointer-events="none" font-family="Open Sans" font-weight="normal" transform="matrix(1,0,0,1,0,-7.099999904632568)"><tspan  dy="0">[HTTP]</tspan></text></g><g id="v-187"  label-idx="2" cursor="move" transform="matrix(1,0,0,1,739.5884399414062,558.7952270507812)" style="cursor: default; opacity: 1;"><rect joint-selector="rect" id="v-193" fill="#ffffff" rx="3" ry="3"  width="0" height="0" transform="matrix(1,0,0,1,0,0)" display="none"></rect><text joint-selector="text" id="v-192" fill="#000000" font-size="14" text-anchor="middle" pointer-events="none"></text></g></g><g  display="none" style="display: none;"><g  transform="translate(762.5, 515)" id="v-220"><circle  idx="0" r="10"></circle><path  idx="0" d="M16,5.333c-7.732,0-14,4.701-14,10.5c0,1.982,0.741,3.833,2.016,5.414L2,25.667l5.613-1.441c2.339,1.317,5.237,2.107,8.387,2.107c7.732,0,14-4.701,14-10.5C30,10.034,23.732,5.333,16,5.333z" transform="translate(5, -33)"></path><path  idx="0" transform="scale(.8) translate(9.5, -37)" d="M24.778,21.419 19.276,15.917 24.777,10.415 21.949,7.585 16.447,13.087 10.945,7.585 8.117,10.415 13.618,15.917 8.116,21.419 10.946,24.248 16.447,18.746 21.948,24.248z"><title>Remove vertex.</title></path></g></g><g  id="v-198" display="none"><g  id="v-183"><path  end="source" d="M 26 0 L 0 13 L 26 26 z"></path></g><g  id="v-184"><path  end="target" d="M 26 0 L 0 13 L 26 26 z"></path></g></g><g  id="v-197" display="none"><g  id="v-182" transform="translate(636.9871239389887, 463.2299922101718) "><g  event="remove"><circle r="11"></circle><path transform="scale(.8) translate(-16, -16)" d="M24.778,21.419 19.276,15.917 24.777,10.415 21.949,7.585 16.447,13.087 10.945,7.585 8.117,10.415 13.618,15.917 8.116,21.419 10.946,24.248 16.447,18.746 21.948,24.248z"></path><title>Remove link.</title></g><g  event="link:options"><circle r="11" transform="translate(25)"></circle><path fill="white" transform="scale(.55) translate(29, -16)" d="M31.229,17.736c0.064-0.571,0.104-1.148,0.104-1.736s-0.04-1.166-0.104-1.737l-4.377-1.557c-0.218-0.716-0.504-1.401-0.851-2.05l1.993-4.192c-0.725-0.91-1.549-1.734-2.458-2.459l-4.193,1.994c-0.647-0.347-1.334-0.632-2.049-0.849l-1.558-4.378C17.165,0.708,16.588,0.667,16,0.667s-1.166,0.041-1.737,0.105L12.707,5.15c-0.716,0.217-1.401,0.502-2.05,0.849L6.464,4.005C5.554,4.73,4.73,5.554,4.005,6.464l1.994,4.192c-0.347,0.648-0.632,1.334-0.849,2.05l-4.378,1.557C0.708,14.834,0.667,15.412,0.667,16s0.041,1.165,0.105,1.736l4.378,1.558c0.217,0.715,0.502,1.401,0.849,2.049l-1.994,4.193c0.725,0.909,1.549,1.733,2.459,2.458l4.192-1.993c0.648,0.347,1.334,0.633,2.05,0.851l1.557,4.377c0.571,0.064,1.148,0.104,1.737,0.104c0.588,0,1.165-0.04,1.736-0.104l1.558-4.377c0.715-0.218,1.399-0.504,2.049-0.851l4.193,1.993c0.909-0.725,1.733-1.549,2.458-2.458l-1.993-4.193c0.347-0.647,0.633-1.334,0.851-2.049L31.229,17.736zM16,20.871c-2.69,0-4.872-2.182-4.872-4.871c0-2.69,2.182-4.872,4.872-4.872c2.689,0,4.871,2.182,4.871,4.872C20.871,18.689,18.689,20.871,16,20.871z"></path><title>Link options.</title></g></g></g></g><!--z-index:11--><g   id="j_19" ><path  stroke="#707070" d="M 900 272 L 772 219 C 765.6666666666666 216.33333333333331 759.3333333333333 216.33333333333331 753 219 L 600 282" id="v-211" stroke-width="2" stroke-dasharray="30 30" fill="none" style="opacity: 1;"></path><path  fill="black" stroke="black" d="M 0 0 0 0" transform="matrix(-0.9240086078643799,-0.3823716640472412,0.3823716640472412,-0.9240086078643799,900,271.8999938964844)"></path><path  fill="#707070" stroke="#707070" d="M 20 0 L 0 10 L 20 20 z" id="v-213" transform="matrix(0.9240196943283081,-0.3823448419570923,0.3823448419570923,0.9240196943283081,596.176513671875,272.9997863769531)" style="opacity: 1;"></path><path  d="M 900 272 L 772 219 C 765.6666666666666 216.33333333333331 759.3333333333333 216.33333333333331 753 219 L 600 282" id="v-212" fill="none" style="cursor: auto; pointer-events: visiblepainted;"></path><g ><g id="v-202"  label-idx="0" cursor="move" transform="matrix(1,0,0,1,749.5884399414062,220.40475463867188)" style="cursor: default; opacity: 1;"><rect joint-selector="rect" id="v-206" fill="#ffffff" rx="3" ry="3" pointer-events="none" width="67.92524719238281" height="32.624996185302734" transform="matrix(1,0,0,1,-33.599998474121094,-16.299999237060547)"></rect><text joint-selector="text" id="v-205" font-size="24px" xml:space="preserve" y="0.8em" fill="#707070" text-anchor="middle" pointer-events="none" font-family="Open Sans" font-weight="normal" transform="matrix(1,0,0,1,0,-10.100000381469727)"><tspan  dy="0">Notify</tspan></text></g><g id="v-203"  label-idx="1" cursor="move" transform="matrix(1,0,0,1,749.5884399414062,246.80474853515625)" style="cursor: default; opacity: 1;"><rect joint-selector="rect" id="v-208" fill="#ffffff" rx="3" ry="3" pointer-events="none" width="55.3537483215332" height="23.48999786376953" transform="matrix(1,0,0,1,-27.700000762939453,-11.800000190734863)"></rect><text joint-selector="text" id="v-207" font-size="17px" xml:space="preserve" y="0.8em" fill="#707070" text-anchor="middle" pointer-events="none" font-family="Open Sans" font-weight="normal" transform="matrix(1,0,0,1,0,-7.099999904632568)"><tspan  dy="0">[SMTP]</tspan></text></g><g id="v-204"  label-idx="2" cursor="move" transform="matrix(1,0,0,1,739.5884399414062,255.20474243164062)" style="cursor: default; opacity: 1;"><rect joint-selector="rect" id="v-210" fill="#ffffff" rx="3" ry="3"  width="0" height="0" transform="matrix(1,0,0,1,0,0)" display="none"></rect><text joint-selector="text" id="v-209" fill="#000000" font-size="14" text-anchor="middle" pointer-events="none"></text></g></g><g  display="none" style="display: none;"><g  transform="translate(762.5, 215)" id="v-221"><circle  idx="0" r="10"></circle><path  idx="0" d="M16,5.333c-7.732,0-14,4.701-14,10.5c0,1.982,0.741,3.833,2.016,5.414L2,25.667l5.613-1.441c2.339,1.317,5.237,2.107,8.387,2.107c7.732,0,14-4.701,14-10.5C30,10.034,23.732,5.333,16,5.333z" transform="translate(5, -33)"></path><path  idx="0" transform="scale(.8) translate(9.5, -37)" d="M24.778,21.419 19.276,15.917 24.777,10.415 21.949,7.585 16.447,13.087 10.945,7.585 8.117,10.415 13.618,15.917 8.116,21.419 10.946,24.248 16.447,18.746 21.948,24.248z"><title>Remove vertex.</title></path></g></g><g  id="v-215" display="none"><g  id="v-200"><path  end="source" d="M 26 0 L 0 13 L 26 26 z"></path></g><g  id="v-201"><path  end="target" d="M 26 0 L 0 13 L 26 26 z"></path></g></g><g  id="v-214" display="none"><g  id="v-199" transform="translate(863.0428451763561, 256.697428080835) "><g  event="remove"><circle r="11"></circle><path transform="scale(.8) translate(-16, -16)" d="M24.778,21.419 19.276,15.917 24.777,10.415 21.949,7.585 16.447,13.087 10.945,7.585 8.117,10.415 13.618,15.917 8.116,21.419 10.946,24.248 16.447,18.746 21.948,24.248z"></path><title>Remove link.</title></g><g  event="link:options"><circle r="11" transform="translate(25)"></circle><path fill="white" transform="scale(.55) translate(29, -16)" d="M31.229,17.736c0.064-0.571,0.104-1.148,0.104-1.736s-0.04-1.166-0.104-1.737l-4.377-1.557c-0.218-0.716-0.504-1.401-0.851-2.05l1.993-4.192c-0.725-0.91-1.549-1.734-2.458-2.459l-4.193,1.994c-0.647-0.347-1.334-0.632-2.049-0.849l-1.558-4.378C17.165,0.708,16.588,0.667,16,0.667s-1.166,0.041-1.737,0.105L12.707,5.15c-0.716,0.217-1.401,0.502-2.05,0.849L6.464,4.005C5.554,4.73,4.73,5.554,4.005,6.464l1.994,4.192c-0.347,0.648-0.632,1.334-0.849,2.05l-4.378,1.557C0.708,14.834,0.667,15.412,0.667,16s0.041,1.165,0.105,1.736l4.378,1.558c0.217,0.715,0.502,1.401,0.849,2.049l-1.994,4.193c0.725,0.909,1.549,1.733,2.459,2.458l4.192-1.993c0.648,0.347,1.334,0.633,2.05,0.851l1.557,4.377c0.571,0.064,1.148,0.104,1.737,0.104c0.588,0,1.165-0.04,1.736-0.104l1.558-4.377c0.715-0.218,1.399-0.504,2.049-0.851l4.193,1.993c0.909-0.725,1.733-1.549,2.458-2.458l-1.993-4.193c0.347-0.647,0.633-1.334,0.851-2.049L31.229,17.736zM16,20.871c-2.69,0-4.872-2.182-4.872-4.871c0-2.69,2.182-4.872,4.872-4.872c2.689,0,4.871,2.182,4.871,4.872C20.871,18.689,18.689,20.871,16,20.871z"></path><title>Link options.</title></g></g></g></g><!--z-index:12--><!--z-index:13--><!--z-index:14--><!--z-index:15--><!--z-index:16--><!--z-index:17--><!--z-index:18--><!--z-index:19--><!--z-index:20--><!--z-index:21--><!--z-index:22--><!--z-index:23--><!--z-index:24--><!--z-index:25--><!--z-index:26--><!--z-index:27--><!--z-index:28--></g><g ></g><g ></g><g ></g></g></svg>