<svg xmlns="http://www.w3.org/2000/svg" xmlns:xlink="http://www.w3.org/1999/xlink" version="1.1" viewBox="0 0 2320 841" style="background: #ffffff"><defs><style>@import url(https://fonts.googleapis.com/css?family=Open+Sans:400,700);</style></defs><defs joint-selector="defs"></defs><g  joint-selector="layers" transform="matrix(1,0,0,1,0,0)"><g ></g><g ><!--z-index:1--><!--z-index:2--><!--z-index:3--><!--z-index:4--><!--z-index:5--><!--z-index:6--><!--z-index:7--><!--z-index:8--><!--z-index:9--><!--z-index:10--><g   id="j_28"  transform="translate(20,804.6)"><g id="v-253"><text  id="v-254" font-size="22px" xml:space="preserve" y="0.8em" font-weight="normal" text-anchor="start" fill="#aaaaaa" pointer-events="none" display="block" font-family="Open Sans"><tspan  dy="0">Tuesday, January 7, 2025 at 9:51 PM Central European Standard Time</tspan></text></g></g><!--z-index:11--><g   id="j_27"  transform="translate(20,761.4)"><g id="v-251"><text  id="v-252" font-size="36px" xml:space="preserve" y="0.8em" font-weight="normal" text-anchor="start" fill="#000000" pointer-events="none" display="block" font-family="Open Sans"><tspan  dy="0">[Container] Booking System</tspan></text></g></g><!--z-index:12--><g   id="j_29"  transform="translate(200,165)" style=""><g  id="v-255" style="opacity: 1;"><rect  x="0" y="160" width="400" height="240" rx="70" id="v-257" stroke="#073b6f" stroke-width="2" pointer-events="visiblePainted" fill="#08427b" style="fill: rgb(8, 66, 123); stroke: rgb(7, 59, 111);"></rect><circle  cx="200" cy="88.88888888888889" r="88.88888888888889" id="v-256" stroke="#073b6f" stroke-width="2" pointer-events="visiblePainted" fill="#08427b" style="fill: rgb(8, 66, 123); stroke: rgb(7, 59, 111);"></circle><line  x1="80" y1="266.6666666666667" x2="80" y2="400" id="v-263" stroke="#073b6f" stroke-width="2" style="stroke: rgb(7, 59, 111);"></line><line  x1="320" y1="266.6666666666667" x2="320" y2="400" id="v-264" stroke="#073b6f" stroke-width="2" style="stroke: rgb(7, 59, 111);"></line><text  id="v-258" font-size="34" xml:space="preserve" y="0.8em" font-weight="bold" text-anchor="middle" pointer-events="visible" font-family="Open Sans" fill="#ffffff" transform="matrix(1,0,0,1,200,251.89999389648438)" style="fill: rgb(255, 255, 255);"><tspan  dy="0">User</tspan></text><text  id="v-259" font-size="17" xml:space="preserve" y="0.8em" text-anchor="middle" font-family="Open Sans" fill="#ffffff" transform="matrix(1,0,0,1,200,292.70001220703125)" style="fill: rgb(255, 255, 255);"><tspan  dy="0">[Person]</tspan></text><text  id="v-260" font-size="24" xml:space="preserve" display="none" y="0.8em" text-anchor="middle" font-family="Open Sans" fill="#ffffff" transform="matrix(1,0,0,1,200,313.1000061035156)" style="fill: rgb(255, 255, 255);"><tspan style="fill-opacity: 0; stroke-opacity: 0;"  dy="0">-</tspan></text><g  id="v-261" font-weight="normal" text-anchor="middle" color="#ffffff" transform="matrix(1,0,0,1,197.5,368)" style="fill: rgb(255, 255, 255);" display="none"><g ></g><g ></g><g ></g><g ></g></g><image  id="v-262"></image></g></g><!--z-index:13--><g   id="j_31"  transform="translate(880,195)" style=""><g id="v-272"><rect  id="v-273" width="1240" height="411" rx="0" ry="0" fill="#ffffff" stroke="#297a29" stroke-width="1" stroke-dasharray="20,20" pointer-events="none"></rect><text  id="v-274" font-size="24px" xml:space="preserve" y="372" font-weight="normal" fill="#297a29" text-anchor="start" pointer-events="visible" font-family="Open Sans" transform="matrix(1,0,0,1,15,0)"><tspan  dy="0">Booking System</tspan></text><text  id="v-275" font-size="17px" xml:space="preserve" y="396" font-weight="normal" fill="#297a29" text-anchor="start" pointer-events="visible" font-family="Open Sans" transform="matrix(1,0,0,1,15,0)"><tspan  dy="0">[Software System]</tspan></text><image  id="v-276" pointer-events="visible"></image></g></g><!--z-index:14--><g   id="j_30"  transform="translate(900,215)" style=""><g  id="v-265" style="opacity: 1;"><rect  id="v-266" rx="1" ry="1" stroke="#4d994d" stroke-width="2" pointer-events="visiblePainted" fill="#55aa55" width="450" height="300" style="fill: rgb(85, 170, 85); stroke: rgb(77, 153, 77);"></rect><text  id="v-267" font-size="34" xml:space="preserve" y="0.8em" font-weight="bold" text-anchor="middle" pointer-events="visible" font-family="Open Sans" fill="#ffffff" transform="matrix(1,0,0,1,225,121.9000015258789)" style="fill: rgb(255, 255, 255);"><tspan  dy="0">Application</tspan></text><text  id="v-268" font-size="17" xml:space="preserve" y="0.8em" text-anchor="middle" font-family="Open Sans" fill="#ffffff" transform="matrix(1,0,0,1,225,162.6999969482422)" style="fill: rgb(255, 255, 255);"><tspan  dy="0">[Container]</tspan></text><text  id="v-269" font-size="24" xml:space="preserve" display="none" y="0.8em" text-anchor="middle" font-family="Open Sans" fill="#ffffff" transform="matrix(1,0,0,1,225,183.10000610351562)" style="fill: rgb(255, 255, 255);"><tspan style="fill-opacity: 0; stroke-opacity: 0;"  dy="0">-</tspan></text><g  id="v-270" color="#ffffff" transform="matrix(1,0,0,1,222.5,268)" style="fill: rgb(255, 255, 255);" display="none"><g ></g><g ></g><g ></g><g ></g></g><image  id="v-271"></image></g></g><!--z-index:15--><g   id="j_32"  transform="translate(1650,215)" style=""><g  id="v-283" style="opacity: 1;"><path  d="M 0,30 a 225,30 0,0,0 450 0 a 225,30 0,0,0 -450 0 l 0,240 a 225,30 0,0,0 450 0 l 0,-240" id="v-284" stroke="#4d994d" stroke-width="2" pointer-events="visiblePainted" fill="#55aa55" style="fill: rgb(85, 170, 85); stroke: rgb(77, 153, 77);"></path><rect  id="v-285" stroke-width="0" pointer-events="visiblePainted" fill="none" stroke="none" width="450" height="270" x="0" y="30"></rect><text  id="v-286" font-size="34" xml:space="preserve" y="0.8em" font-weight="bold" text-anchor="middle" pointer-events="visible" font-family="Open Sans" fill="#ffffff" transform="matrix(1,0,0,1,225,110.5999984741211)" style="fill: rgb(255, 255, 255);"><tspan  dy="0">Relational Database</tspan></text><text  id="v-287" font-size="17" xml:space="preserve" y="0.8em" text-anchor="middle" font-family="Open Sans" fill="#ffffff" transform="matrix(1,0,0,1,225,151.39999389648438)" style="fill: rgb(255, 255, 255);"><tspan  dy="0">[Container: MySQL Server]</tspan></text><text  id="v-288" font-size="24" xml:space="preserve" y="0.8em" text-anchor="middle" font-family="Open Sans" fill="#ffffff" transform="matrix(1,0,0,1,225,181.8000030517578)" style="fill: rgb(255, 255, 255);"><tspan  dy="0">Stores events and remaining tickets</tspan><tspan dy="1.2em" x="0" >Stores successful bookings</tspan></text><g  id="v-289" font-weight="normal" text-anchor="middle" color="#ffffff" transform="matrix(1,0,0,1,222.5,268)" style="fill: rgb(255, 255, 255);" display="none"><g ></g><g ></g><g ></g><g ></g></g><image  id="v-290"></image></g></g><!--z-index:16--><g   id="j_33" ><path  stroke="#707070" d="M 600 365 L 900 365" id="v-306" stroke-width="2" stroke-dasharray="30 30" fill="none" style="opacity: 1;"></path><path  fill="black" stroke="black" d="M 0 0 0 0" transform="matrix(1,0,0,1,600,365)"></path><path  fill="#707070" stroke="#707070" d="M 20 0 L 0 10 L 20 20 z" id="v-308" transform="matrix(-1,1.2246468525851679e-16,-1.2246468525851679e-16,-1,900,375)" style="opacity: 1;"></path><path  d="M 600 365 L 900 365" id="v-307" fill="none" style="cursor: auto; pointer-events: visiblepainted;"></path><g ><g id="v-297"  label-idx="0" cursor="move" transform="matrix(1,0,0,1,750,365)" style="cursor: default; opacity: 1;"><rect joint-selector="rect" id="v-301" fill="#ffffff" rx="3" ry="3" pointer-events="none" width="127.95444869995117" height="61.666669845581055" transform="matrix(1,0,0,1,-63.79999923706055,-30.799999237060547)"></rect><text joint-selector="text" id="v-300" font-size="24px" xml:space="preserve" y="0.8em" fill="#707070" text-anchor="middle" pointer-events="none" font-family="Open Sans" font-weight="normal" transform="matrix(1,0,0,1,0,-23.899999618530273)"><tspan  dy="0">Send Ticket</tspan><tspan dy="1.2em" x="0" >Request</tspan></text></g><g id="v-298"  label-idx="1" cursor="move" transform="matrix(1,0,0,1,750,405.79998779296875)" style="cursor: default; opacity: 1;"><rect joint-selector="rect" id="v-303" fill="#ffffff" rx="3" ry="3" pointer-events="none" width="52.68333435058594" height="23.20000171661377" transform="matrix(1,0,0,1,-26.299999237060547,-11.600000381469727)"></rect><text joint-selector="text" id="v-302" font-size="17px" xml:space="preserve" y="0.8em" fill="#707070" text-anchor="middle" pointer-events="none" font-family="Open Sans" font-weight="normal" transform="matrix(1,0,0,1,0,-6.800000190734863)"><tspan  dy="0">[HTTP]</tspan></text></g><g id="v-299"  label-idx="2" cursor="move" transform="matrix(1,0,0,1,740,414.20001220703125)" style="cursor: default; opacity: 1;"><rect joint-selector="rect" id="v-305" fill="#ffffff" rx="3" ry="3"  width="0" height="0" transform="matrix(1,0,0,1,0,0)" display="none"></rect><text joint-selector="text" id="v-304" fill="#000000" font-size="14" text-anchor="middle" pointer-events="none"></text></g></g><g  display="none" style="display: none;"></g><g  id="v-310" display="none"><g  id="v-295"><path  end="source" d="M 26 0 L 0 13 L 26 26 z"></path></g><g  id="v-296"><path  end="target" d="M 26 0 L 0 13 L 26 26 z"></path></g></g><g  id="v-309" display="none"><g  id="v-294" transform="translate(640, 365.00000000000006) "><g  event="remove"><circle r="11"></circle><path transform="scale(.8) translate(-16, -16)" d="M24.778,21.419 19.276,15.917 24.777,10.415 21.949,7.585 16.447,13.087 10.945,7.585 8.117,10.415 13.618,15.917 8.116,21.419 10.946,24.248 16.447,18.746 21.948,24.248z"></path><title>Remove link.</title></g><g  event="link:options"><circle r="11" transform="translate(25)"></circle><path fill="white" transform="scale(.55) translate(29, -16)" d="M31.229,17.736c0.064-0.571,0.104-1.148,0.104-1.736s-0.04-1.166-0.104-1.737l-4.377-1.557c-0.218-0.716-0.504-1.401-0.851-2.05l1.993-4.192c-0.725-0.91-1.549-1.734-2.458-2.459l-4.193,1.994c-0.647-0.347-1.334-0.632-2.049-0.849l-1.558-4.378C17.165,0.708,16.588,0.667,16,0.667s-1.166,0.041-1.737,0.105L12.707,5.15c-0.716,0.217-1.401,0.502-2.05,0.849L6.464,4.005C5.554,4.73,4.73,5.554,4.005,6.464l1.994,4.192c-0.347,0.648-0.632,1.334-0.849,2.05l-4.378,1.557C0.708,14.834,0.667,15.412,0.667,16s0.041,1.165,0.105,1.736l4.378,1.558c0.217,0.715,0.502,1.401,0.849,2.049l-1.994,4.193c0.725,0.909,1.549,1.733,2.459,2.458l4.192-1.993c0.648,0.347,1.334,0.633,2.05,0.851l1.557,4.377c0.571,0.064,1.148,0.104,1.737,0.104c0.588,0,1.165-0.04,1.736-0.104l1.558-4.377c0.715-0.218,1.399-0.504,2.049-0.851l4.193,1.993c0.909-0.725,1.733-1.549,2.458-2.458l-1.993-4.193c0.347-0.647,0.633-1.334,0.851-2.049L31.229,17.736zM16,20.871c-2.69,0-4.872-2.182-4.872-4.871c0-2.69,2.182-4.872,4.872-4.872c2.689,0,4.871,2.182,4.871,4.872C20.871,18.689,18.689,20.871,16,20.871z"></path><title>Link options.</title></g></g></g></g><!--z-index:17--><g   id="j_34" ><path  stroke="#707070" d="M 1350 365 L 1650 365" id="v-326" stroke-width="2" stroke-dasharray="30 30" fill="none" style="opacity: 1;"></path><path  fill="black" stroke="black" d="M 0 0 0 0" transform="matrix(1,0,0,1,1350,365)"></path><path  fill="#707070" stroke="#707070" d="M 20 0 L 0 10 L 20 20 z" id="v-328" transform="matrix(-1,1.2246468525851679e-16,-1.2246468525851679e-16,-1,1650,375)" style="opacity: 1;"></path><path  d="M 1350 365 L 1650 365" id="v-327" fill="none" style="cursor: auto; pointer-events: visiblepainted;"></path><g ><g id="v-317"  label-idx="0" cursor="move" transform="matrix(1,0,0,1,1500,365)" style="cursor: default; opacity: 1;"><rect joint-selector="rect" id="v-321" fill="#ffffff" rx="3" ry="3" pointer-events="none" width="187.40444946289062" height="148.0666732788086" transform="matrix(1,0,0,1,-93.69999694824219,-74)"></rect><text joint-selector="text" id="v-320" font-size="24px" xml:space="preserve" y="0.8em" fill="#707070" text-anchor="middle" pointer-events="none" font-family="Open Sans" font-weight="normal" transform="matrix(1,0,0,1,0,-67.0999984741211)"><tspan  dy="0">Reads remaining</tspan><tspan dy="1.2em" x="0" >tickets from</tspan><tspan dy="1.2em" x="0" >---------------------</tspan><tspan dy="1.2em" x="0" >Writes bookings</tspan><tspan dy="1.2em" x="0" >to</tspan></text></g><g id="v-318"  label-idx="1" cursor="move" transform="matrix(1,0,0,1,1500,449)" style="cursor: default; opacity: 1;"><rect joint-selector="rect" id="v-323" fill="#ffffff" rx="3" ry="3" pointer-events="none" width="49.75111389160156" height="23.20000171661377" transform="matrix(1,0,0,1,-24.899999618530273,-11.600000381469727)"></rect><text joint-selector="text" id="v-322" font-size="17px" xml:space="preserve" y="0.8em" fill="#707070" text-anchor="middle" pointer-events="none" font-family="Open Sans" font-weight="normal" transform="matrix(1,0,0,1,0,-6.800000190734863)"><tspan  dy="0">[JDBC]</tspan></text></g><g id="v-319"  label-idx="2" cursor="move" transform="matrix(1,0,0,1,1490,457.3999938964844)" style="cursor: default; opacity: 1;"><rect joint-selector="rect" id="v-325" fill="#ffffff" rx="3" ry="3"  width="0" height="0" transform="matrix(1,0,0,1,0,0)" display="none"></rect><text joint-selector="text" id="v-324" fill="#000000" font-size="14" text-anchor="middle" pointer-events="none"></text></g></g><g  display="none" style="display: none;"></g><g  id="v-330" display="none"><g  id="v-315"><path  end="source" d="M 26 0 L 0 13 L 26 26 z"></path></g><g  id="v-316"><path  end="target" d="M 26 0 L 0 13 L 26 26 z"></path></g></g><g  id="v-329" display="none"><g  id="v-314" transform="translate(1390, 365.00000000000006) "><g  event="remove"><circle r="11"></circle><path transform="scale(.8) translate(-16, -16)" d="M24.778,21.419 19.276,15.917 24.777,10.415 21.949,7.585 16.447,13.087 10.945,7.585 8.117,10.415 13.618,15.917 8.116,21.419 10.946,24.248 16.447,18.746 21.948,24.248z"></path><title>Remove link.</title></g><g  event="link:options"><circle r="11" transform="translate(25)"></circle><path fill="white" transform="scale(.55) translate(29, -16)" d="M31.229,17.736c0.064-0.571,0.104-1.148,0.104-1.736s-0.04-1.166-0.104-1.737l-4.377-1.557c-0.218-0.716-0.504-1.401-0.851-2.05l1.993-4.192c-0.725-0.91-1.549-1.734-2.458-2.459l-4.193,1.994c-0.647-0.347-1.334-0.632-2.049-0.849l-1.558-4.378C17.165,0.708,16.588,0.667,16,0.667s-1.166,0.041-1.737,0.105L12.707,5.15c-0.716,0.217-1.401,0.502-2.05,0.849L6.464,4.005C5.554,4.73,4.73,5.554,4.005,6.464l1.994,4.192c-0.347,0.648-0.632,1.334-0.849,2.05l-4.378,1.557C0.708,14.834,0.667,15.412,0.667,16s0.041,1.165,0.105,1.736l4.378,1.558c0.217,0.715,0.502,1.401,0.849,2.049l-1.994,4.193c0.725,0.909,1.549,1.733,2.459,2.458l4.192-1.993c0.648,0.347,1.334,0.633,2.05,0.851l1.557,4.377c0.571,0.064,1.148,0.104,1.737,0.104c0.588,0,1.165-0.04,1.736-0.104l1.558-4.377c0.715-0.218,1.399-0.504,2.049-0.851l4.193,1.993c0.909-0.725,1.733-1.549,2.458-2.458l-1.993-4.193c0.347-0.647,0.633-1.334,0.851-2.049L31.229,17.736zM16,20.871c-2.69,0-4.872-2.182-4.872-4.871c0-2.69,2.182-4.872,4.872-4.872c2.689,0,4.871,2.182,4.871,4.872C20.871,18.689,18.689,20.871,16,20.871z"></path><title>Link options.</title></g></g></g></g><!--z-index:18--></g><g ></g><g ></g><g ></g></g></svg>